<?xml version="1.0" encoding="UTF-8"?>
<!DOCTYPE svg PUBLIC "-//W3C//DTD SVG 1.1//EN" "http://www.w3.org/Graphics/SVG/1.1/DTD/svg11.dtd">
<!-- Creator: CorelDRAW -->
<svg xmlns="http://www.w3.org/2000/svg" xml:space="preserve" width="95.9972in" height="17.1711in" version="1.1" style="shape-rendering:geometricPrecision; text-rendering:geometricPrecision; image-rendering:optimizeQuality; fill-rule:evenodd; clip-rule:evenodd"
viewBox="0 0 111367.95 19920.44"
 xmlns:xlink="http://www.w3.org/1999/xlink"
 xmlns:xodm="http://www.corel.com/coreldraw/odm/2003">
 <defs>
  <style type="text/css">
   <![CDATA[
    .fil1 {fill:white}
    .fil0 {fill:white;fill-rule:nonzero}
   ]]>
  </style>
 </defs>
 <g id="Layer_x0020_1">
  <metadata id="CorelCorpID_0Corel-Layer"/>
  <g id="_105553360004896">
   <path class="fil0" d="M29000.37 14960.6l0 -8249.46 -3023.59 0 0 -1659.08 8063.18 0 0 1659.08 -3039.15 0 0 8249.46 -2000.48 0 0.04 0zm8142.97 186.03c-1674.69,0 -2512.01,-950.97 -2512.01,-2853.12l0 -4853.61 1953.71 0 0 4822.69c0,516.83 98.29,894.15 294.63,1131.7 206.89,237.81 527.14,356.71 961.53,356.71 537.44,0 966.53,-196.33 1287.07,-589.22 320.24,-392.63 480.62,-940.66 480.62,-1643.49l0 -4078.36 1953.72 0 0 7520.74 -1550.49 0c-51.78,-113.9 -108.6,-294.63 -170.68,-542.74 -113.6,-341.11 -170.68,-744.33 -170.68,-1209.64l0 -93c-165.42,641.03 -470.31,1142.26 -914.76,1504.26 -444.44,351.41 -981.88,527.14 -1612.57,527.14l-0.07 -0.07zm5923.48 -186.03l0 -7520.74 1566.34 0c72.13,155.11 134.22,346.4 186.03,573.91 123.91,403.22 186.03,863.24 186.03,1380.06l0 418.54c155.11,-878.55 418.79,-1509.27 790.85,-1891.59 372.31,-392.92 796.1,-589.22 1271.46,-589.22 330.8,0 568.6,118.9 713.42,356.45l0 1442.15c-930.36,-20.61 -1623.16,175.72 -2077.88,589.22 -444.44,413.53 -666.9,1131.95 -666.9,2155.3l0 3085.92 -1969.27 0 -0.08 0zm10175.17 170.43c-1364.46,0 -2238,-671.94 -2620.61,-2015.8 -51.52,713.42 -118.9,1183.73 -201.59,1411.24 -51.78,175.43 -108.6,320.24 -170.43,434.13l-1488.66 0 0 -10435.68 1969.28 0 0 4667.33c165.42,-558.31 470.31,-1018.34 914.76,-1380.06 444.44,-372.32 1013.05,-558.31 1705.86,-558.31 950.97,0 1695.3,351.41 2232.73,1054.53 537.69,692.55 806.41,1612.57 806.41,2760.13l0 15.6c0,1281.77 -294.63,2279.22 -883.84,2992.68 -578.91,702.86 -1333.55,1054.27 -2263.91,1054.27l-0 -0.03zm-589.22 -1348.9c547.74,0 976.84,-211.9 1287.07,-635.99 309.94,-423.54 465.05,-1043.96 465.05,-1860.68l0 -511.53c0,-651.34 -155.11,-1157.86 -465.05,-1519.58 -299.89,-372.31 -729.02,-558.3 -1287.07,-558.3 -548,0 -1008.04,196.33 -1380.06,589.22 -362,392.92 -542.73,930.36 -542.73,1612.61l0 294.63c0,857.93 180.73,1504.26 542.73,1938.37 361.71,434.14 821.76,651.34 1380.06,651.34l0 -0.07zm8394.03 1348.9c-1064.83,0 -1958.97,-335.85 -2682.44,-1007.75 -723.72,-682.25 -1085.43,-1685.25 -1085.43,-3008.23l0 -30.92c0,-1178.72 346.15,-2109.08 1038.71,-2791.29 703.11,-692.55 1612.86,-1038.96 2729.21,-1038.96 1116.35,0 2026.1,341.11 2729.21,1023.61 702.86,682.25 1054.27,1612.57 1054.27,2791.04l0 30.92c0,1333.55 -361.71,2341.59 -1085.43,3023.84 -723.47,671.94 -1622.87,1007.75 -2698.04,1007.75l-0.04 -0zm0 -1287.07c1188.77,0 1783.28,-837.33 1783.28,-2511.76l0 -558.3c0,-703.11 -160.37,-1245.85 -480.62,-1628.17 -320.5,-382.61 -754.64,-573.65 -1302.63,-573.65 -548,0 -982.14,191.04 -1302.38,573.65 -310.19,382.33 -465.31,925.06 -465.31,1628.17l0 558.3c0,1674.4 589.22,2511.76 1767.69,2511.76l-0.03 0zm10497.51 -1147.27l2278.96 -7644.64 3039.15 0 0 9908.55 -2000.2 0 0 -8187.38 -2449.68 8187.38 -1876.28 0 -2434.59 -8094.35 0 8094.35 -1814.2 0 0 -9908.55 2992.67 0 2264.16 7644.64 0 0zm13452.13 -1085.43l-4744.75 0c41.22,744.32 253.66,1271.46 636.28,1581.65 382.33,299.63 961.28,449.45 1736.52,449.45 889.14,0 1643.52,-170.43 2263.66,-511.53l0 1085.43c-175.44,248.11 -506.02,465.06 -991.9,651.34 -476.16,175.72 -1049.51,263.42 -1721.21,263.42 -1241.1,0 -2207.09,-335.85 -2899.9,-1007.75 -682.5,-682.25 -1023.61,-1659.34 -1023.61,-2930.81l0 -15.31c0,-1189.03 341.11,-2139.99 1023.61,-2853.12 682.25,-713.42 1561.05,-1070.12 2636.22,-1070.12 1074.62,0 1886.33,294.63 2434.33,883.84 557.79,589.21 837.62,1349.15 837.62,2279.51 0,423.84 -62.37,821.76 -186.79,1194.03l-0.07 -0.04zm-3054.21 -3070.32c-507.04,0 -909.75,175.72 -1209.64,527.39 -299.89,351.41 -460.01,868.24 -480.91,1550.49l3163.35 0 0 -155.11c0,-1281.77 -490.67,-1922.8 -1472.8,-1922.8l0.01 0.04zm7163.48 6605.69c-950.68,0 -1705.6,-367.02 -2263.65,-1101.04 -548,-744.32 -822.02,-1721.17 -822.02,-2930.55l0 -15.6c0,-1209.38 294.88,-2150.3 884.39,-2821.95 599.01,-672.2 1358.91,-1008.05 2278.96,-1008.05 671.94,0 1214.4,165.42 1628.17,496.22 413.24,330.8 702.56,754.64 868.24,1271.46l0 -4512.24 1969.57 0 0 10435.69 -1550.75 0c-72.64,-155.12 -129.2,-320.5 -170.42,-496.22 -124.45,-341.11 -191.58,-749.62 -201.34,-1224.95 -444.7,1271.46 -1318.49,1907.2 -2621.15,1907.2l0 0.02zm651.59 -1380.06c547.49,0 1002.49,-217.2 1364.75,-651.34 372.02,-434.13 557.79,-1013.05 557.79,-1736.77l0 -279.02c0,-806.16 -180.98,-1410.98 -542.45,-1814.2 -351.7,-403.22 -811.71,-604.82 -1380.06,-604.82 -548,0 -977.38,180.98 -1287.06,542.73 -299.89,362.01 -449.45,899.44 -449.45,1612.86l0 527.14c0,754.64 149.56,1343.85 449.45,1767.68 299.89,423.84 728.48,635.74 1287.06,635.74l-0.04 -0.01zm6424.96 -7148.42c-310.48,0 -574.16,-103.31 -790.85,-310.19 -217.45,-216.94 -325.8,-480.62 -325.8,-790.56 0,-310.19 108.35,-573.91 325.8,-790.85 216.66,-217.2 480.37,-325.8 790.85,-325.8 319.99,0 589.21,108.6 805.91,325.8 217.45,216.95 325.8,480.62 325.8,790.85 0,309.93 -108.35,573.65 -325.8,790.56 -216.65,206.89 -485.92,310.19 -805.91,310.19zm-977.38 8342.49l0 -7520.74 1969.27 0 0 7520.74 -1969.27 0zm6923.03 186.03c-1116.35,0 -2016.05,-356.7 -2698.55,-1069.87 -671.65,-723.73 -1007.25,-1690.26 -1007.25,-2899.64l0 -15.6c0,-1240.55 361.46,-2201.82 1084.93,-2884.03 723.72,-682.5 1586.95,-1023.61 2589.44,-1023.61 1241.1,0 2068.12,253.41 2481.1,759.93l0 1317.98c-537.44,-351.41 -1256.15,-527.14 -2155.31,-527.14 -599.81,0 -1085.72,170.42 -1457.49,511.53 -372.02,341.11 -558.05,868.53 -558.05,1581.65l0 434.39c0,1581.4 708.41,2372.25 2123.85,2372.25 703.37,0 1421.28,-201.59 2155.3,-604.57l0 1116.35c-464.8,620.13 -1317.69,930.36 -2557.98,930.36l0 0.01zm6185.05 15.6c-1199.08,0 -2108.54,-274.02 -2729.21,-822.01l0 -1255.87c692.81,454.75 1524.58,682.25 2496.41,682.25 527.14,0 904.71,-72.39 1132.5,-217.2 237.81,-144.52 356.71,-372.02 356.71,-682.25 0,-320.49 -160.92,-547.74 -481.17,-682.25 -123.65,-51.78 -490.67,-129.21 -1101.04,-232.54 -609.57,-103.31 -1054.26,-227.5 -1333.29,-372.32 -703.11,-361.71 -1054.02,-992.19 -1054.02,-1891.59 0,-816.72 283.78,-1426.58 852.13,-1829.77 579.46,-403.22 1297.38,-604.82 2155.31,-604.82 1044.51,0 1819.75,217.2 2326.53,651.34l0 1255.86c-703.11,-340.85 -1447.7,-511.53 -2232.99,-511.53 -930.36,0 -1395.92,289.33 -1395.92,868.24 0,310.19 155.12,527.39 465.56,651.34 206.09,82.69 624.88,175.72 1255.61,279.02 630.43,93.28 1075.13,217.2 1333.84,372.32 671.94,341.11 1008.04,950.97 1008.04,1829.77 0,816.46 -279.57,1441.89 -837.33,1876.28 -548.29,423.84 -1287.07,635.73 -2217.68,635.73l0 -0z"/>
   <path class="fil1" d="M10758.07 8369.71c0,-55.22 -21.66,-108.34 -61.57,-147.71 -38.82,-39.12 -91.69,-61.28 -147.71,-61.28l-889.64 0c-55.22,0 -108.06,22.2 -147.97,61.28 -38.82,39.37 -60.49,92.49 -60.49,147.71l0 937.22 -937.21 0c-55.48,0 -108.6,21.41 -147.97,60.23 -39.37,39.91 -61.28,93 -61.28,147.97l0 889.64c0,56.27 21.91,109.14 61.28,147.97 39.37,39.91 92.49,61.57 147.97,61.57l937.21 0 0 936.17c0,55.22 21.66,108.35 60.49,147.71 39.91,39.37 92.74,61.32 147.97,61.32l889.64 0c56.02,0 108.85,-21.91 147.71,-61.32 39.91,-39.37 61.57,-92.49 61.57,-147.71l0 -936.17 935.91 0c55.48,0 108.6,-21.66 147.71,-61.57 39.37,-38.82 61.28,-91.69 61.28,-147.97l0 -889.64c0,-54.97 -21.91,-108.09 -61.28,-147.97 -39.11,-38.82 -92.2,-60.23 -147.71,-60.23l-935.91 0 0 -937.22zm-10758.07 4761.66c0,3749.66 3039.4,6789.07 6789.11,6789.07l3971.07 0 0 -4797.58 -3258.45 -33.31c0,0 -602.46,61.28 -1360.51,-630.43 -569.95,-520.28 -636.79,-1375.31 -636.79,-1375.31l-13.2 -6856.45 -5491.19 0 0 6904.02 -0.04 0zm19923.89 -6342.01c0,-3749.66 -3039.15,-6789.36 -6788.82,-6789.36l-3971.07 0 0 4797.88 3258.45 33.02c0,0 602.47,-61.03 1360.25,630.72 570.2,519.99 637.04,1375.31 637.04,1375.31l12.95 6856.45 5491.19 0 0 -6904.02z"/>
  </g>
 </g>
</svg>
