<?xml version="1.0" encoding="UTF-8"?>
<!DOCTYPE svg PUBLIC "-//W3C//DTD SVG 1.1//EN" "http://www.w3.org/Graphics/SVG/1.1/DTD/svg11.dtd">
<!-- Creator: CorelDRAW -->
<svg xmlns="http://www.w3.org/2000/svg" xml:space="preserve" width="69.3664in" height="12.4076in" version="1.1" style="shape-rendering:geometricPrecision; text-rendering:geometricPrecision; image-rendering:optimizeQuality; fill-rule:evenodd; clip-rule:evenodd"
viewBox="0 0 30693.4 5490.14"
 xmlns:xlink="http://www.w3.org/1999/xlink"
 xmlns:xodm="http://www.corel.com/coreldraw/odm/2003">
 <defs>
  <style type="text/css">
   <![CDATA[
    .fil1 {fill:white}
    .fil0 {fill:white;fill-rule:nonzero}
   ]]>
  </style>
 </defs>
 <g id="Layer_x0020_1">
  <metadata id="CorelCorpID_0Corel-Layer"/>
  <g id="_105553360004896">
   <path class="fil0" d="M7992.6 4123.19l0 -2273.58 -833.31 0 0 -457.25 2222.24 0 0 457.25 -837.6 0 0 2273.58 -551.34 0zm2244.23 51.27c-461.55,0 -692.32,-262.09 -692.32,-786.33l0 -1337.67 538.45 0 0 1329.15c0,142.44 27.09,246.43 81.2,311.9 57.02,65.54 145.28,98.31 265,98.31 148.12,0 266.38,-54.11 354.72,-162.39 88.26,-108.21 132.46,-259.25 132.46,-452.95l0 -1124.01 538.45 0 0 2072.74 -427.32 0c-14.27,-31.39 -29.93,-81.2 -47.04,-149.58 -31.31,-94.01 -47.04,-205.14 -47.04,-333.38l0 -25.63c-45.59,176.67 -129.62,314.81 -252.11,414.58 -122.49,96.85 -270.61,145.28 -444.43,145.28zm1632.53 -51.27l0 -2072.74 431.69 0c19.88,42.75 36.99,95.47 51.27,158.17 34.15,111.13 51.27,237.91 51.27,380.35l0 115.35c42.75,-242.13 115.42,-415.96 217.96,-521.33 102.61,-108.29 219.41,-162.39 350.42,-162.39 91.17,0 156.71,32.77 196.62,98.24l0 397.46c-256.41,-5.68 -447.35,48.43 -572.67,162.39 -122.49,113.97 -183.8,311.97 -183.8,594.01l0 850.49 -542.74 0zm2804.31 46.97c-376.05,0 -616.8,-185.19 -722.25,-555.56 -14.2,196.62 -32.77,326.24 -55.56,388.94 -14.27,48.35 -29.93,88.26 -46.97,119.65l-410.28 0 0 -2876.11 542.74 0 0 1286.33c45.59,-153.87 129.62,-280.66 252.11,-380.35 122.49,-102.61 279.2,-153.87 470.14,-153.87 262.09,0 467.23,96.85 615.35,290.63 148.19,190.87 222.25,444.43 222.25,760.7l0 4.3c0,353.26 -81.2,628.16 -243.59,824.79 -159.55,193.71 -367.53,290.56 -623.94,290.56zm-162.39 -371.76c150.96,0 269.22,-58.4 354.72,-175.28 85.42,-116.73 128.17,-287.72 128.17,-512.81l0 -140.98c0,-179.51 -42.75,-319.11 -128.17,-418.8 -82.65,-102.61 -200.92,-153.87 -354.72,-153.87 -151.03,0 -277.82,54.11 -380.35,162.39 -99.77,108.29 -149.58,256.41 -149.58,444.44l0 81.2c0,236.45 49.81,414.58 149.58,534.22 99.69,119.65 226.48,179.51 380.35,179.51zm2313.42 371.76c-293.47,0 -539.9,-92.56 -739.29,-277.74 -199.46,-188.03 -299.15,-464.46 -299.15,-829.08l0 -8.52c0,-324.86 95.4,-581.27 286.27,-769.29 193.78,-190.87 444.51,-286.34 752.18,-286.34 307.67,0 558.4,94.01 752.18,282.11 193.71,188.03 290.56,444.43 290.56,769.22l0 8.52c0,367.53 -99.69,645.35 -299.15,833.38 -199.39,185.19 -447.27,277.74 -743.59,277.74zm0 -354.72c327.63,0 491.48,-230.77 491.48,-692.25l0 -153.87c0,-193.78 -44.2,-343.36 -132.46,-448.73 -88.33,-105.45 -207.98,-158.1 -359.01,-158.1 -151.03,0 -270.68,52.65 -358.94,158.1 -85.49,105.37 -128.24,254.95 -128.24,448.73l0 153.87c0,461.47 162.39,692.25 487.18,692.25zm2893.15 -316.19l628.09 -2106.89 837.6 0 0 2730.83 -551.26 0 0 -2256.47 -675.14 2256.47 -517.11 0 -670.98 -2230.83 0 2230.83 -500 0 0 -2730.83 824.79 0 624.01 2106.89zm3707.45 -299.15l-1307.67 0c11.36,205.14 69.91,350.42 175.36,435.91 105.37,82.58 264.93,123.87 478.59,123.87 245.05,0 452.96,-46.97 623.87,-140.98l0 299.15c-48.35,68.38 -139.46,128.17 -273.37,179.51 -131.23,48.43 -289.25,72.6 -474.37,72.6 -342.05,0 -608.28,-92.56 -799.22,-277.74 -188.1,-188.03 -282.11,-457.32 -282.11,-807.74l0 -4.22c0,-327.7 94.01,-589.79 282.11,-786.33 188.03,-196.62 430.23,-294.93 726.55,-294.93 296.17,0 519.88,81.2 670.91,243.59 153.73,162.39 230.85,371.83 230.85,628.24 0,116.81 -17.19,226.48 -51.48,329.08zm-841.75 -846.19c-139.74,0 -250.73,48.43 -333.38,145.35 -82.65,96.85 -126.78,239.29 -132.54,427.32l871.83 0 0 -42.75c0,-353.26 -135.23,-529.93 -405.91,-529.93zm1974.28 1820.55c-262.01,0 -470.07,-101.15 -623.87,-303.45 -151.03,-205.14 -226.55,-474.36 -226.55,-807.67l0 -4.3c0,-333.31 81.27,-592.63 243.74,-777.74 165.09,-185.26 374.52,-277.82 628.09,-277.82 185.19,0 334.69,45.59 448.73,136.76 113.89,91.17 193.63,207.98 239.29,350.42l0 -1243.59 542.82 0 0 2876.11 -427.39 0c-20.02,-42.75 -35.61,-88.33 -46.97,-136.76 -34.3,-94.01 -52.8,-206.6 -55.49,-337.6 -122.56,350.42 -363.38,525.63 -722.4,525.63zm179.58 -380.35c150.89,0 276.29,-59.86 376.13,-179.51 102.53,-119.65 153.73,-279.2 153.73,-478.66l0 -76.9c0,-222.18 -49.88,-388.87 -149.5,-500 -96.93,-111.13 -223.71,-166.69 -380.35,-166.69 -151.03,0 -269.37,49.88 -354.72,149.58 -82.65,99.77 -123.87,247.89 -123.87,444.51l0 145.28c0,207.98 41.22,370.37 123.87,487.18 82.65,116.81 200.77,175.21 354.72,175.21zm1770.74 -1970.13c-85.57,0 -158.24,-28.47 -217.96,-85.49 -59.93,-59.79 -89.79,-132.46 -89.79,-217.88 0,-85.49 29.86,-158.17 89.79,-217.96 59.71,-59.86 132.39,-89.79 217.96,-89.79 88.19,0 162.39,29.93 222.11,89.79 59.93,59.79 89.79,132.46 89.79,217.96 0,85.42 -29.86,158.1 -89.79,217.88 -59.71,57.02 -133.92,85.49 -222.11,85.49zm-269.37 2299.22l0 -2072.74 542.74 0 0 2072.74 -542.74 0zm1908.01 51.27c-307.67,0 -555.63,-98.31 -743.73,-294.86 -185.11,-199.46 -277.6,-465.84 -277.6,-799.15l0 -4.3c0,-341.9 99.62,-606.83 299.01,-794.85 199.46,-188.1 437.37,-282.11 713.66,-282.11 342.05,0 569.98,69.84 683.8,209.44l0 363.24c-148.12,-96.85 -346.2,-145.28 -594.01,-145.28 -165.31,0 -299.23,46.97 -401.69,140.98 -102.53,94.01 -153.8,239.37 -153.8,435.91l0 119.72c0,435.84 195.24,653.8 585.34,653.8 193.85,0 391.71,-55.56 594.01,-166.62l0 307.67c-128.1,170.91 -363.16,256.41 -704.99,256.41zm1704.62 4.3c-330.47,0 -581.12,-75.52 -752.18,-226.55l0 -346.12c190.94,125.33 420.18,188.03 688.02,188.03 145.28,0 249.34,-19.95 312.12,-59.86 65.54,-39.83 98.31,-102.53 98.31,-188.03 0,-88.33 -44.35,-150.96 -132.61,-188.03 -34.08,-14.27 -135.23,-35.61 -303.45,-64.09 -168,-28.47 -290.56,-62.7 -367.46,-102.61 -193.78,-99.69 -290.49,-273.45 -290.49,-521.33 0,-225.09 78.21,-393.17 234.85,-504.29 159.7,-111.13 357.56,-166.69 594.01,-166.69 287.87,0 501.53,59.86 641.2,179.51l0 346.12c-193.78,-93.94 -398.99,-140.98 -615.42,-140.98 -256.41,0 -384.72,79.74 -384.72,239.29 0,85.49 42.75,145.35 128.31,179.51 56.8,22.79 172.22,48.43 346.05,76.9 173.75,25.71 296.31,59.86 367.61,102.61 185.19,94.01 277.82,262.09 277.82,504.29 0,225.02 -77.05,397.39 -230.77,517.11 -151.11,116.81 -354.72,175.21 -611.2,175.21z"/>
   <path class="fil1" d="M2964.96 2306.72c0,-15.22 -5.97,-29.86 -16.97,-40.71 -10.7,-10.78 -25.27,-16.89 -40.71,-16.89l-245.19 0c-15.22,0 -29.78,6.12 -40.78,16.89 -10.7,10.85 -16.67,25.49 -16.67,40.71l0 258.3 -258.3 0c-15.29,0 -29.93,5.9 -40.78,16.6 -10.85,11 -16.89,25.63 -16.89,40.78l0 245.19c0,15.51 6.04,30.08 16.89,40.78 10.85,11 25.49,16.97 40.78,16.97l258.3 0 0 258.01c0,15.22 5.97,29.86 16.67,40.71 11,10.85 25.56,16.9 40.78,16.9l245.19 0c15.44,0 30,-6.04 40.71,-16.9 11,-10.85 16.97,-25.49 16.97,-40.71l0 -258.01 257.94 0c15.29,0 29.93,-5.97 40.71,-16.97 10.85,-10.7 16.89,-25.27 16.89,-40.78l0 -245.19c0,-15.15 -6.04,-29.79 -16.89,-40.78 -10.78,-10.7 -25.41,-16.6 -40.71,-16.6l-257.94 0 0 -258.3zm-2964.96 1312.33c0,1033.42 837.67,1871.09 1871.1,1871.09l1094.44 0 0 -1322.23 -898.04 -9.18c0,0 -166.04,16.89 -374.96,-173.75 -157.08,-143.39 -175.5,-379.04 -175.5,-379.04l-3.64 -1889.66 -1513.39 0 0 1902.77zm5491.09 -1747.88c0,-1033.42 -837.6,-1871.17 -1871.02,-1871.17l-1094.44 0 0 1322.31 898.04 9.1c0,0 166.04,-16.82 374.89,173.83 157.15,143.31 175.57,379.04 175.57,379.04l3.57 1889.66 1513.39 0 0 -1902.77z"/>
  </g>
 </g>
</svg>
