<svg width="201" height="36" viewBox="0 0 201 36" fill="none" xmlns="http://www.w3.org/2000/svg">
<path d="M52.154 26.9872V12.2967H46.7694V9.34209H61.1284V12.2967H55.7162V26.9872H52.154ZM66.6548 27.3185C63.6726 27.3185 62.1814 25.6249 62.1814 22.2376V13.5946H65.6607V22.1824C65.6607 23.1029 65.8356 23.7748 66.1854 24.1982C66.5536 24.6216 67.1243 24.8333 67.8974 24.8333C68.8547 24.8333 69.6187 24.4835 70.1894 23.784C70.76 23.0844 71.0454 22.1088 71.0454 20.8569V13.5946H74.5247V26.9872H71.7633C71.6713 26.7847 71.57 26.4625 71.4596 26.0207C71.2571 25.4132 71.1558 24.6952 71.1558 23.8668V23.7011C70.8613 24.8425 70.3182 25.7353 69.5266 26.3797C68.735 27.0056 67.7778 27.3185 66.6548 27.3185ZM77.2036 26.9872V13.5946H79.9926C80.1215 13.8707 80.2319 14.2113 80.324 14.6163C80.5449 15.3342 80.6553 16.1534 80.6553 17.0739V17.8195C80.9315 16.2547 81.4009 15.1317 82.0636 14.4506C82.7263 13.7511 83.4811 13.4013 84.3279 13.4013C84.917 13.4013 85.3404 13.613 85.5982 14.0364V16.6045C83.9413 16.5676 82.7079 16.9174 81.8979 17.6538C81.1063 18.3901 80.7106 19.6696 80.7106 21.4921V26.9872H77.2036ZM95.3233 27.2909C92.8933 27.2909 91.3377 26.0943 90.6566 23.7011C90.5646 24.9714 90.4449 25.809 90.2976 26.214C90.2056 26.5269 90.1043 26.7847 89.9939 26.9872H87.343V8.40323H90.8499V16.7149C91.1445 15.7208 91.6875 14.9016 92.4791 14.2573C93.2707 13.5946 94.2832 13.2632 95.5166 13.2632C97.2102 13.2632 98.5357 13.8891 99.493 15.1409C100.45 16.3743 100.929 18.0128 100.929 20.0562V20.0838C100.929 22.3665 100.404 24.143 99.3549 25.4132C98.324 26.665 96.9801 27.2909 95.3233 27.2909ZM94.274 24.8885C95.2497 24.8885 96.0136 24.5111 96.5659 23.7564C97.1182 23.0016 97.3943 21.8971 97.3943 20.4427V19.5315C97.3943 18.3717 97.1182 17.4697 96.5659 16.8254C96.0321 16.1626 95.2681 15.8313 94.274 15.8313C93.2983 15.8313 92.4791 16.1811 91.8164 16.8806C91.1721 17.5801 90.8499 18.5374 90.8499 19.7524V20.2771C90.8499 21.805 91.1721 22.9556 91.8164 23.7288C92.4607 24.5019 93.2799 24.8885 94.274 24.8885ZM109.222 27.2909C107.326 27.2909 105.734 26.6926 104.445 25.496C103.156 24.281 102.512 22.4954 102.512 20.139V20.0838C102.512 17.9851 103.129 16.3283 104.362 15.1133C105.614 13.8799 107.234 13.2632 109.222 13.2632C111.21 13.2632 112.83 13.8707 114.082 15.0857C115.334 16.3007 115.96 17.9575 115.96 20.0562V20.1114C115.96 22.4861 115.316 24.281 114.027 25.496C112.738 26.6926 111.137 27.2909 109.222 27.2909ZM109.222 24.999C111.339 24.999 112.398 23.5079 112.398 20.5256V19.5315C112.398 18.2797 112.112 17.3132 111.542 16.6321C110.971 15.9509 110.198 15.6104 109.222 15.6104C108.247 15.6104 107.473 15.9509 106.903 16.6321C106.35 17.3132 106.074 18.2797 106.074 19.5315V20.5256C106.074 23.5079 107.124 24.999 109.222 24.999ZM127.916 22.9556L131.975 9.34209H137.387V26.9872H133.825V12.4072L129.462 26.9872H126.121L121.786 12.5729V26.9872H118.555V9.34209H123.884L127.916 22.9556ZM151.872 21.0226H143.423C143.496 22.3481 143.874 23.2869 144.555 23.8392C145.236 24.3731 146.267 24.64 147.648 24.64C149.231 24.64 150.575 24.3363 151.679 23.7288V25.6617C151.366 26.1035 150.777 26.4901 149.912 26.8215C149.065 27.1344 148.043 27.2909 146.847 27.2909C144.638 27.2909 142.916 26.6926 141.683 25.496C140.468 24.281 139.861 22.5414 139.861 20.2771V20.2495C139.861 18.1324 140.468 16.4388 141.683 15.1686C142.898 13.8983 144.463 13.2632 146.377 13.2632C148.292 13.2632 149.737 13.7879 150.713 14.8372C151.707 15.8865 152.204 17.2396 152.204 18.8964C152.204 19.6512 152.093 20.3599 151.872 21.0226ZM146.433 15.5551C145.531 15.5551 144.813 15.8681 144.279 16.494C143.745 17.1199 143.459 18.0404 143.423 19.2554H149.056V18.9792C149.056 16.6965 148.181 15.5551 146.433 15.5551ZM159.19 27.3185C157.496 27.3185 156.153 26.665 155.158 25.358C154.183 24.0325 153.695 22.2929 153.695 20.139V20.1114C153.695 17.9575 154.22 16.2823 155.269 15.0857C156.337 13.8891 157.69 13.2908 159.328 13.2908C160.525 13.2908 161.491 13.5854 162.228 14.1745C162.964 14.7636 163.479 15.5183 163.774 16.4388V8.40323H167.281V26.9872H164.519C164.391 26.711 164.289 26.4165 164.216 26.1035C163.995 25.496 163.875 24.7689 163.857 23.9221C163.065 26.1864 161.51 27.3185 159.19 27.3185ZM160.35 24.8609C161.325 24.8609 162.135 24.4743 162.78 23.7011C163.443 22.928 163.774 21.8971 163.774 20.6084V20.1114C163.774 18.6755 163.452 17.5985 162.807 16.8806C162.181 16.1626 161.362 15.8037 160.35 15.8037C159.374 15.8037 158.61 16.1258 158.058 16.7701C157.524 17.4145 157.257 18.3717 157.257 19.642V20.5808C157.257 21.9247 157.524 22.974 158.058 23.7288C158.592 24.4835 159.356 24.8609 160.35 24.8609ZM171.791 12.1311C171.239 12.1311 170.769 11.947 170.383 11.5788C169.996 11.1922 169.803 10.7228 169.803 10.1705C169.803 9.61823 169.996 9.1488 170.383 8.76221C170.769 8.37562 171.239 8.18232 171.791 8.18232C172.362 8.18232 172.84 8.37562 173.227 8.76221C173.614 9.1488 173.807 9.61823 173.807 10.1705C173.807 10.7228 173.614 11.1922 173.227 11.5788C172.84 11.947 172.362 12.1311 171.791 12.1311ZM170.051 26.9872V13.5946H173.558V26.9872H170.051ZM182.379 27.3185C180.391 27.3185 178.79 26.6834 177.575 25.4132C176.378 24.1246 175.78 22.4033 175.78 20.2495V20.2218C175.78 18.0128 176.424 16.3007 177.713 15.0857C179.001 13.8707 180.538 13.2632 182.324 13.2632C184.533 13.2632 186.006 13.7142 186.742 14.6163V16.9634C185.785 16.3375 184.506 16.0246 182.904 16.0246C181.836 16.0246 180.971 16.3283 180.308 16.9358C179.646 17.5433 179.314 18.4822 179.314 19.7524V20.5256C179.314 23.3422 180.575 24.7505 183.097 24.7505C184.349 24.7505 185.629 24.3915 186.936 23.6735V25.6617C186.107 26.7663 184.588 27.3185 182.379 27.3185ZM193.394 27.3461C191.259 27.3461 189.639 26.8583 188.534 25.8826V23.6459C189.768 24.4559 191.25 24.8609 192.98 24.8609C193.919 24.8609 194.591 24.7321 194.996 24.4743C195.419 24.2166 195.631 23.8116 195.631 23.2593C195.631 22.6886 195.346 22.2836 194.775 22.0443C194.554 21.9523 193.9 21.8142 192.814 21.6301C191.728 21.446 190.937 21.2251 190.44 20.9674C189.188 20.3231 188.562 19.2001 188.562 17.5985C188.562 16.1442 189.068 15.0581 190.081 14.3401C191.111 13.6222 192.391 13.2632 193.919 13.2632C195.778 13.2632 197.159 13.6498 198.061 14.423V16.6597C196.809 16.0522 195.484 15.7484 194.084 15.7484C192.428 15.7484 191.599 16.2639 191.599 17.2948C191.599 17.8471 191.875 18.2337 192.428 18.4546C192.796 18.6018 193.541 18.7675 194.664 18.9516C195.787 19.1173 196.579 19.3382 197.039 19.6143C198.236 20.2218 198.834 21.308 198.834 22.8727C198.834 24.3271 198.337 25.4408 197.343 26.214C196.367 26.9688 195.051 27.3461 193.394 27.3461Z" fill="#FAFAFA"/>
<path fill-rule="evenodd" clip-rule="evenodd" d="M19.6692 14.9053C19.6692 14.8067 19.6307 14.712 19.5595 14.6421C19.4903 14.5722 19.3962 14.533 19.2962 14.533H17.7118C17.6138 14.533 17.5195 14.5722 17.4484 14.6421C17.3792 14.712 17.3408 14.8067 17.3408 14.9053V20.5694C17.3408 20.668 17.3792 20.7627 17.4484 20.8325C17.5195 20.9024 17.6138 20.9417 17.7118 20.9417H19.2962C19.3962 20.9417 19.4903 20.9024 19.5595 20.8325C19.6307 20.7627 19.6692 20.668 19.6692 20.5694V14.9053Z" fill="#FAFAFA"/>
<path fill-rule="evenodd" clip-rule="evenodd" d="M21.3357 18.902C21.4343 18.902 21.529 18.8634 21.5989 18.7923C21.6688 18.7231 21.708 18.629 21.708 18.529V16.9446C21.708 16.8466 21.6688 16.7524 21.5989 16.6812C21.529 16.612 21.4343 16.5736 21.3357 16.5736H15.6716C15.573 16.5736 15.4783 16.612 15.4084 16.6812C15.3385 16.7524 15.2993 16.8466 15.2993 16.9446V18.529C15.2993 18.629 15.3385 18.7231 15.4084 18.7923C15.4783 18.8634 15.573 18.902 15.6716 18.902H21.3357Z" fill="#FAFAFA"/>
<path fill-rule="evenodd" clip-rule="evenodd" d="M35.9895 12.0903C35.9895 5.41306 30.5772 0.000137329 23.8997 0.000137329H16.8281V8.54395L22.6307 8.60298C22.6307 8.60298 23.7036 8.49396 25.0533 9.72601C26.0685 10.6522 26.1877 12.1749 26.1877 12.1749L26.2108 24.3851H35.9895V12.0903Z" fill="#FAFAFA"/>
<path fill-rule="evenodd" clip-rule="evenodd" d="M0.509977 23.3841C0.509977 30.0614 5.92231 35.4743 12.5998 35.4743H19.6714V26.9305L13.8688 26.8715C13.8688 26.8715 12.7959 26.9805 11.4462 25.7485C10.431 24.8223 10.3118 23.2995 10.3118 23.2995L10.2887 11.0894H0.509977V23.3841Z" fill="#FAFAFA"/>
</svg>
